<svg  viewBox="0 0 20 20" fill="none" xmlns="http://www.w3.org/2000/svg">
<path d="M15.8083 18.9582H4.1416C1.0166 18.9582 1.0166 17.2248 1.0166 15.8332V14.9998C1.0166 14.1998 1.67493 13.5415 2.47493 13.5415H17.4749C18.2749 13.5415 18.9333 14.1998 18.9333 14.9998V15.8332C18.9333 17.2248 18.9333 18.9582 15.8083 18.9582ZM2.47493 14.7915C2.35827 14.7915 2.2666 14.8832 2.2666 14.9998V15.8332C2.2666 17.1998 2.2666 17.7082 4.1416 17.7082H15.8083C17.6833 17.7082 17.6833 17.1998 17.6833 15.8332V14.9998C17.6833 14.8832 17.5916 14.7915 17.4749 14.7915H2.47493Z" fill="#333333"/>
<path d="M17.2663 14.7915H2.72461C2.38294 14.7915 2.09961 14.5082 2.09961 14.1665V10.8332C2.09961 7.4165 4.52461 4.4165 7.85794 3.70817C8.34961 3.59984 8.86628 3.5415 9.39128 3.5415H10.5996C11.1329 3.5415 11.6496 3.59984 12.1413 3.70817C15.4746 4.42484 17.8913 7.42484 17.8913 10.8332V14.1665C17.8913 14.5082 17.6163 14.7915 17.2663 14.7915ZM3.34961 13.5415H16.6413V10.8332C16.6413 8.00817 14.6413 5.52484 11.8746 4.92484C11.4663 4.83317 11.0413 4.7915 10.5996 4.7915H9.39128C8.95794 4.7915 8.53294 4.83317 8.12461 4.92484C5.35794 5.5165 3.34961 7.99984 3.34961 10.8332V13.5415Z" fill="#333333"/>
<path d="M7.99199 4.9415C7.71699 4.9415 7.46699 4.75817 7.39199 4.48317C7.32533 4.2415 7.29199 3.99984 7.29199 3.74984C7.29199 2.25817 8.50866 1.0415 10.0003 1.0415C11.492 1.0415 12.7087 2.25817 12.7087 3.74984C12.7087 3.99984 12.6753 4.2415 12.6087 4.48317C12.5253 4.79984 12.2087 4.99984 11.8753 4.92484C11.467 4.83317 11.042 4.7915 10.6003 4.7915H9.39199C8.95866 4.7915 8.53366 4.83317 8.12533 4.92484C8.08366 4.93317 8.04199 4.9415 7.99199 4.9415ZM9.39199 3.5415H10.6003C10.8837 3.5415 11.1753 3.55817 11.4503 3.5915C11.3753 2.85817 10.7503 2.2915 10.0003 2.2915C9.25033 2.2915 8.63366 2.85817 8.55033 3.5915C8.83366 3.55817 9.10866 3.5415 9.39199 3.5415Z" fill="#333333"/>
<path d="M12.5 9.7915H7.5C7.15833 9.7915 6.875 9.50817 6.875 9.1665C6.875 8.82484 7.15833 8.5415 7.5 8.5415H12.5C12.8417 8.5415 13.125 8.82484 13.125 9.1665C13.125 9.50817 12.8417 9.7915 12.5 9.7915Z" fill="#333333"/>
</svg>
