<svg  viewBox="0 0 16 17" fill="none" xmlns="http://www.w3.org/2000/svg">
<path d="M5.33301 4.33301C5.05967 4.33301 4.83301 4.10634 4.83301 3.83301V1.83301C4.83301 1.55967 5.05967 1.33301 5.33301 1.33301C5.60634 1.33301 5.83301 1.55967 5.83301 1.83301V3.83301C5.83301 4.10634 5.60634 4.33301 5.33301 4.33301Z" fill="#6B7280"/>
<path d="M10.667 4.33301C10.3937 4.33301 10.167 4.10634 10.167 3.83301V1.83301C10.167 1.55967 10.3937 1.33301 10.667 1.33301C10.9403 1.33301 11.167 1.55967 11.167 1.83301V3.83301C11.167 4.10634 10.9403 4.33301 10.667 4.33301Z" fill="#6B7280"/>
<path d="M5.66667 10.1665C5.58 10.1665 5.49333 10.1466 5.41333 10.1132C5.32667 10.0799 5.26 10.0332 5.19333 9.97321C5.07333 9.84654 5 9.67988 5 9.49988C5 9.41322 5.02 9.32655 5.05333 9.24655C5.08667 9.16655 5.13333 9.09322 5.19333 9.02655C5.26 8.96655 5.32667 8.91987 5.41333 8.88654C5.65333 8.78654 5.95333 8.83989 6.14 9.02655C6.26 9.15322 6.33333 9.32655 6.33333 9.49988C6.33333 9.53988 6.32667 9.58656 6.32 9.63322C6.31333 9.67322 6.3 9.71322 6.28 9.75322C6.26667 9.79322 6.24667 9.83321 6.22 9.87321C6.2 9.90655 6.16667 9.93988 6.14 9.97321C6.01333 10.0932 5.84 10.1665 5.66667 10.1665Z" fill="#6B7280"/>
<path d="M7.99967 10.1666C7.91301 10.1666 7.82634 10.1466 7.74634 10.1133C7.65967 10.0799 7.59301 10.0332 7.52634 9.97324C7.40634 9.84658 7.33301 9.67992 7.33301 9.49992C7.33301 9.41325 7.35301 9.32658 7.38634 9.24658C7.41968 9.16658 7.46634 9.09325 7.52634 9.02659C7.59301 8.96659 7.65967 8.91991 7.74634 8.88657C7.98634 8.77991 8.28634 8.83992 8.47301 9.02659C8.59301 9.15325 8.66634 9.32658 8.66634 9.49992C8.66634 9.53992 8.65967 9.58659 8.65301 9.63326C8.64634 9.67326 8.63301 9.71325 8.61301 9.75325C8.59967 9.79325 8.57968 9.83325 8.55301 9.87325C8.53301 9.90658 8.49967 9.93991 8.47301 9.97324C8.34634 10.0932 8.17301 10.1666 7.99967 10.1666Z" fill="#6B7280"/>
<path d="M10.3337 10.1666C10.247 10.1666 10.1603 10.1466 10.0803 10.1133C9.99366 10.0799 9.92699 10.0332 9.86033 9.97324C9.83366 9.93991 9.80699 9.90658 9.78032 9.87325C9.75366 9.83325 9.73366 9.79325 9.72033 9.75325C9.70033 9.71325 9.68699 9.67326 9.68033 9.63326C9.67366 9.58659 9.66699 9.53992 9.66699 9.49992C9.66699 9.32658 9.74033 9.15325 9.86033 9.02659C9.92699 8.96659 9.99366 8.91991 10.0803 8.88657C10.327 8.77991 10.6203 8.83992 10.807 9.02659C10.927 9.15325 11.0003 9.32658 11.0003 9.49992C11.0003 9.53992 10.9937 9.58659 10.987 9.63326C10.9803 9.67326 10.967 9.71325 10.947 9.75325C10.9337 9.79325 10.9137 9.83325 10.887 9.87325C10.867 9.90658 10.8337 9.93991 10.807 9.97324C10.6803 10.0932 10.507 10.1666 10.3337 10.1666Z" fill="#6B7280"/>
<path d="M5.66667 12.4998C5.58 12.4998 5.49333 12.4798 5.41333 12.4465C5.33333 12.4131 5.26 12.3665 5.19333 12.3065C5.07333 12.1798 5 12.0065 5 11.8331C5 11.7465 5.02 11.6598 5.05333 11.5798C5.08667 11.4931 5.13333 11.4198 5.19333 11.3598C5.44 11.1131 5.89333 11.1131 6.14 11.3598C6.26 11.4865 6.33333 11.6598 6.33333 11.8331C6.33333 12.0065 6.26 12.1798 6.14 12.3065C6.01333 12.4265 5.84 12.4998 5.66667 12.4998Z" fill="#6B7280"/>
<path d="M7.99967 12.4998C7.82634 12.4998 7.65301 12.4265 7.52634 12.3065C7.40634 12.1798 7.33301 12.0065 7.33301 11.8331C7.33301 11.7465 7.35301 11.6598 7.38634 11.5798C7.41968 11.4931 7.46634 11.4198 7.52634 11.3598C7.77301 11.1131 8.22634 11.1131 8.47301 11.3598C8.53301 11.4198 8.57967 11.4931 8.61301 11.5798C8.64634 11.6598 8.66634 11.7465 8.66634 11.8331C8.66634 12.0065 8.59301 12.1798 8.47301 12.3065C8.34634 12.4265 8.17301 12.4998 7.99967 12.4998Z" fill="#6B7280"/>
<path d="M10.3337 12.4999C10.1603 12.4999 9.98699 12.4266 9.86033 12.3066C9.80033 12.2466 9.75366 12.1733 9.72033 12.0866C9.68699 12.0066 9.66699 11.9199 9.66699 11.8333C9.66699 11.7466 9.68699 11.6599 9.72033 11.5799C9.75366 11.4933 9.80033 11.4199 9.86033 11.3599C10.0137 11.2066 10.247 11.1333 10.4603 11.1799C10.507 11.1866 10.547 11.1999 10.587 11.2199C10.627 11.2333 10.667 11.2533 10.707 11.28C10.7403 11.3 10.7737 11.3333 10.807 11.3599C10.927 11.4866 11.0003 11.6599 11.0003 11.8333C11.0003 12.0066 10.927 12.1799 10.807 12.3066C10.6803 12.4266 10.507 12.4999 10.3337 12.4999Z" fill="#6B7280"/>
<path d="M13.6663 7.05957H2.33301C2.05967 7.05957 1.83301 6.8329 1.83301 6.55957C1.83301 6.28624 2.05967 6.05957 2.33301 6.05957H13.6663C13.9397 6.05957 14.1663 6.28624 14.1663 6.55957C14.1663 6.8329 13.9397 7.05957 13.6663 7.05957Z" fill="#6B7280"/>
<path d="M10.6667 15.6663H5.33333C2.9 15.6663 1.5 14.2663 1.5 11.833V6.16634C1.5 3.73301 2.9 2.33301 5.33333 2.33301H10.6667C13.1 2.33301 14.5 3.73301 14.5 6.16634V11.833C14.5 14.2663 13.1 15.6663 10.6667 15.6663ZM5.33333 3.33301C3.42667 3.33301 2.5 4.25967 2.5 6.16634V11.833C2.5 13.7397 3.42667 14.6663 5.33333 14.6663H10.6667C12.5733 14.6663 13.5 13.7397 13.5 11.833V6.16634C13.5 4.25967 12.5733 3.33301 10.6667 3.33301H5.33333Z" fill="#6B7280"/>
</svg>
