<svg  viewBox="0 0 17 17" fill="none" xmlns="http://www.w3.org/2000/svg">
<path d="M8.49967 15.6663C4.54634 15.6663 1.33301 12.453 1.33301 8.49967C1.33301 4.54634 4.54634 1.33301 8.49967 1.33301C12.453 1.33301 15.6663 4.54634 15.6663 8.49967C15.6663 12.453 12.453 15.6663 8.49967 15.6663ZM8.49967 2.33301C5.09967 2.33301 2.33301 5.09967 2.33301 8.49967C2.33301 11.8997 5.09967 14.6663 8.49967 14.6663C11.8997 14.6663 14.6663 11.8997 14.6663 8.49967C14.6663 5.09967 11.8997 2.33301 8.49967 2.33301Z" fill="#6B7280"/>
<path d="M10.9731 11.1202C10.8864 11.1202 10.7998 11.1002 10.7198 11.0468L8.6531 9.8135C8.13977 9.50684 7.75977 8.8335 7.75977 8.24017V5.50684C7.75977 5.2335 7.98643 5.00684 8.25977 5.00684C8.5331 5.00684 8.75977 5.2335 8.75977 5.50684V8.24017C8.75977 8.48017 8.95977 8.8335 9.16643 8.9535L11.2331 10.1868C11.4731 10.3268 11.5464 10.6335 11.4064 10.8735C11.3064 11.0335 11.1398 11.1202 10.9731 11.1202Z" fill="#6B7280"/>
</svg>
