<svg  viewBox="0 0 25 24" fill="none" xmlns="http://www.w3.org/2000/svg">
<g clip-path="url(#clip0_747_10931)">
<path d="M18.8151 5.68457H6.18359V18.3161H18.8151V5.68457Z" fill="white"/>
<path d="M18.8156 24.0002L24.4998 18.3159L21.6577 17.8311L18.8156 18.3159L18.2969 20.9156L18.8156 24.0002Z" fill="#EA4335"/>
<path d="M0.5 18.3159V22.1054C0.5 23.1523 1.34787 24.0002 2.39469 24.0002H6.18425L6.76784 21.1581L6.18425 18.3159L3.08741 17.8311L0.5 18.3159Z" fill="#188038"/>
<path d="M24.4998 5.68425V1.89469C24.4998 0.847875 23.652 0 22.6052 0H18.8156C18.4698 1.40963 18.2969 2.447 18.2969 3.11212C18.2969 3.77719 18.4698 4.63456 18.8156 5.68425C20.0728 6.04425 21.0202 6.22425 21.6577 6.22425C22.2953 6.22425 23.2427 6.04431 24.4998 5.68425Z" fill="#1967D2"/>
<path d="M24.4987 5.68457H18.8145V18.3161H24.4987V5.68457Z" fill="#FBBC04"/>
<path d="M18.8151 18.3154H6.18359V23.9997H18.8151V18.3154Z" fill="#34A853"/>
<path d="M18.8158 0H2.39478C1.34788 0 0.5 0.847875 0.5 1.89469V18.3158H6.18425V5.68425H18.8158V0Z" fill="#4285F4"/>
<path d="M8.77431 15.4839C8.30219 15.1649 7.97528 14.6992 7.79688 14.0833L8.89272 13.6318C8.99209 14.0107 9.16578 14.3044 9.41378 14.5128C9.66006 14.7212 9.96006 14.8239 10.3106 14.8239C10.669 14.8239 10.9768 14.7149 11.2342 14.497C11.4917 14.2791 11.6211 14.0012 11.6211 13.6649C11.6211 13.3207 11.4853 13.0396 11.2138 12.8218C10.9422 12.6039 10.6011 12.4949 10.1938 12.4949H9.56059V11.4103H10.129C10.4795 11.4103 10.7747 11.3155 11.0147 11.1259C11.2547 10.9365 11.3747 10.6775 11.3747 10.3475C11.3747 10.0539 11.2674 9.82016 11.0527 9.64495C10.838 9.46963 10.5663 9.38123 10.2363 9.38123C9.91422 9.38123 9.65847 9.46654 9.469 9.63857C9.27959 9.8111 9.13721 10.029 9.05528 10.2718L7.97059 9.82016C8.11422 9.41282 8.37794 9.05282 8.76475 8.74176C9.15156 8.4307 9.64581 8.27441 10.2458 8.27441C10.6895 8.27441 11.089 8.35973 11.4427 8.53176C11.7963 8.70388 12.0742 8.94229 12.2747 9.24548C12.4754 9.55016 12.5747 9.89123 12.5747 10.2702C12.5747 10.657 12.4817 10.9839 12.2954 11.2523C12.1091 11.5207 11.8801 11.7259 11.6085 11.8696V11.9343C11.9591 12.0789 12.2638 12.3164 12.4895 12.6212C12.7185 12.9291 12.8338 13.297 12.8338 13.7265C12.8338 14.1559 12.7247 14.5396 12.5069 14.8759C12.289 15.2123 11.9875 15.4775 11.6053 15.6702C11.2217 15.8628 10.7906 15.9608 10.3122 15.9608C9.75794 15.9623 9.24644 15.8028 8.77431 15.4839ZM15.5052 10.0459L14.3021 10.9159L13.7005 10.0034L15.8589 8.44645H16.6862V15.7902H15.5052V10.0459Z" fill="#4285F4"/>
</g>
<defs>
<clipPath id="clip0_747_10931">
<rect width="24" height="24" fill="white" transform="translate(0.5)"/>
</clipPath>
</defs>
</svg>
