<svg  viewBox="0 0 16 17" fill="none" xmlns="http://www.w3.org/2000/svg">
<path d="M6.10671 8.24634C6.08671 8.24634 6.07337 8.24634 6.05337 8.24634C6.02004 8.23967 5.97337 8.23967 5.93337 8.24634C4.00004 8.18634 2.54004 6.66634 2.54004 4.79301C2.54004 2.88634 4.09337 1.33301 6.00004 1.33301C7.90671 1.33301 9.46004 2.88634 9.46004 4.79301C9.45337 6.66634 7.98671 8.18634 6.12671 8.24634C6.12004 8.24634 6.11337 8.24634 6.10671 8.24634ZM6.00004 2.33301C4.64671 2.33301 3.54004 3.43967 3.54004 4.79301C3.54004 6.12634 4.58004 7.19967 5.90671 7.24634C5.94671 7.23967 6.03337 7.23967 6.12004 7.24634C7.42671 7.18634 8.45337 6.11301 8.46004 4.79301C8.46004 3.43967 7.35337 2.33301 6.00004 2.33301Z" fill="currentColor"/>
<path d="M11.0266 8.33317C11.0066 8.33317 10.9866 8.33317 10.9666 8.3265C10.6932 8.35317 10.4132 8.15984 10.3866 7.8865C10.3599 7.61317 10.5266 7.3665 10.7999 7.33317C10.8799 7.3265 10.9666 7.3265 11.0399 7.3265C12.0132 7.27317 12.7732 6.47317 12.7732 5.49317C12.7732 4.47984 11.9532 3.65984 10.9399 3.65984C10.6666 3.6665 10.4399 3.43984 10.4399 3.1665C10.4399 2.89317 10.6666 2.6665 10.9399 2.6665C12.4999 2.6665 13.7732 3.93984 13.7732 5.49984C13.7732 7.03317 12.5732 8.27317 11.0466 8.33317C11.0399 8.33317 11.0332 8.33317 11.0266 8.33317Z" fill="currentColor"/>
<path d="M6.11307 15.5332C4.80641 15.5332 3.49307 15.1998 2.49974 14.5332C1.57307 13.9198 1.06641 13.0798 1.06641 12.1665C1.06641 11.2532 1.57307 10.4065 2.49974 9.7865C4.49974 8.45984 7.73974 8.45984 9.72641 9.7865C10.6464 10.3998 11.1597 11.2398 11.1597 12.1532C11.1597 13.0665 10.6531 13.9132 9.72641 14.5332C8.72641 15.1998 7.41974 15.5332 6.11307 15.5332ZM3.05307 10.6265C2.41307 11.0532 2.06641 11.5998 2.06641 12.1732C2.06641 12.7398 2.41974 13.2865 3.05307 13.7065C4.71307 14.8198 7.51307 14.8198 9.17307 13.7065C9.81307 13.2798 10.1597 12.7332 10.1597 12.1598C10.1597 11.5932 9.80641 11.0465 9.17307 10.6265C7.51307 9.51984 4.71307 9.51984 3.05307 10.6265Z" fill="currentColor"/>
<path d="M12.2268 14.3333C11.9934 14.3333 11.7868 14.1733 11.7401 13.9333C11.6868 13.66 11.8601 13.4 12.1268 13.34C12.5468 13.2533 12.9334 13.0867 13.2334 12.8533C13.6134 12.5667 13.8201 12.2067 13.8201 11.8267C13.8201 11.4467 13.6134 11.0867 13.2401 10.8067C12.9468 10.58 12.5801 10.42 12.1468 10.32C11.8801 10.26 11.7068 9.99335 11.7668 9.72001C11.8268 9.45335 12.0934 9.28001 12.3668 9.34001C12.9401 9.46668 13.4401 9.69335 13.8468 10.0067C14.4668 10.4733 14.8201 11.1333 14.8201 11.8267C14.8201 12.52 14.4601 13.18 13.8401 13.6533C13.4268 13.9733 12.9068 14.2067 12.3334 14.32C12.2934 14.3333 12.2601 14.3333 12.2268 14.3333Z" fill="currentColor"/>
</svg>
