<svg width="24" height="24" viewBox="0 0 24 24" fill="none" xmlns="http://www.w3.org/2000/svg">
<path d="M14 6.49902H21.2665C21.6715 6.49902 22 6.82752 22 7.23252V16.7655C22 17.1705 21.6715 17.499 21.2665 17.499H14V6.49902Z" fill="#1976D2"/>
<path d="M21 8.97852H14V16.7495H21V8.97852Z" fill="white"/>
<path d="M13.5 21.999L2 19.749V4.24902L13.5 1.99902V21.999Z" fill="#1976D2"/>
<path d="M7.625 8.25C6.037 8.25 4.75 9.929 4.75 12C4.75 14.071 6.037 15.75 7.625 15.75C9.213 15.75 10.5 14.071 10.5 12C10.5 9.929 9.213 8.25 7.625 8.25ZM7.5 14.25C6.6715 14.25 6 13.2425 6 12C6 10.7575 6.6715 9.75 7.5 9.75C8.3285 9.75 9 10.7575 9 12C9 13.2425 8.3285 14.25 7.5 14.25Z" fill="white"/>
<path d="M15.3734 14.8682H14.0234V16.3182H15.3734V14.8682Z" fill="#1976D2"/>
<path d="M17.0727 14.8682H15.7227V16.3182H17.0727V14.8682Z" fill="#1976D2"/>
<path d="M18.7738 14.8672H17.4238V16.3172H18.7738V14.8672Z" fill="#1976D2"/>
<path d="M15.3734 13.0801H14.0234V14.5301H15.3734V13.0801Z" fill="#1976D2"/>
<path d="M17.0727 13.0801H15.7227V14.5301H17.0727V13.0801Z" fill="#1976D2"/>
<path d="M18.7738 13.0801H17.4238V14.5301H18.7738V13.0801Z" fill="#1976D2"/>
<path d="M20.475 13.0801H19.125V14.5301H20.475V13.0801Z" fill="#1976D2"/>
<path d="M15.3734 11.3525H14.0234V12.8025H15.3734V11.3525Z" fill="#1976D2"/>
<path d="M17.0727 11.3525H15.7227V12.8025H17.0727V11.3525Z" fill="#1976D2"/>
<path d="M18.7738 11.3525H17.4238V12.8025H18.7738V11.3525Z" fill="#1976D2"/>
<path d="M20.475 11.3525H19.125V12.8025H20.475V11.3525Z" fill="#1976D2"/>
<path d="M17.0727 9.55566H15.7227V11.0057H17.0727V9.55566Z" fill="#1976D2"/>
<path d="M18.7738 9.55469H17.4238V11.0047H18.7738V9.55469Z" fill="#1976D2"/>
<path d="M20.475 9.55566H19.125V11.0057H20.475V9.55566Z" fill="#1976D2"/>
</svg>
