<svg viewBox="0 0 17 15" fill="none" xmlns="http://www.w3.org/2000/svg">
<path d="M16.4979 3.5214C16.4523 1.6741 12.9548 0.233887 8.49995 0.233887C4.04515 0.233887 0.547666 1.67405 0.501983 3.5214C0.5 3.53329 0.5 3.54717 0.5 3.55841V5.99993C0.5 7.61259 3.12595 8.92197 6.73527 9.247V10.8154C5.1193 11.0844 3.79157 11.7327 3.79157 12.7168C3.79157 14.0486 6.21786 14.7656 8.5 14.7656C10.7821 14.7656 13.2084 14.0485 13.2084 12.7168C13.2084 11.732 11.88 11.0843 10.2647 10.8154V9.247C13.8734 8.92182 16.5 7.61252 16.5 5.99993V3.55841C16.5 3.54717 16.4999 3.53329 16.4979 3.5214ZM12.4861 12.7176C12.4861 13.2576 10.9329 14.0421 8.49995 14.0421C6.06701 14.0421 4.51383 13.2569 4.51383 12.7176C4.51383 12.3237 5.3413 11.7989 6.73522 11.5451V11.7242C6.73522 12.4942 7.31022 12.9727 8.23619 12.9727H8.76427C9.68958 12.9727 10.2652 12.4942 10.2652 11.7242V11.5451C11.6585 11.7989 12.4861 12.3231 12.4861 12.7176ZM9.54035 10.7209V11.7242C9.54035 12.0725 9.27994 12.249 8.76377 12.249H8.23568C7.71949 12.249 7.4591 12.0732 7.4591 11.7242V9.29792C7.79948 9.31643 8.14581 9.32502 8.49939 9.32502C8.85298 9.32502 9.19997 9.31643 9.53969 9.29792L9.54035 10.7209ZM13.7703 7.75793C12.7756 8.14391 11.5436 8.40564 10.1999 8.5246C10.0763 8.53782 9.95136 8.54641 9.8258 8.55501C9.6989 8.56492 9.57003 8.57219 9.43983 8.5788C9.13052 8.594 8.81525 8.60061 8.49933 8.60061C8.18274 8.60061 7.86813 8.594 7.55883 8.5788C7.42862 8.57219 7.29975 8.56558 7.17285 8.55501C7.04794 8.54641 6.92235 8.53782 6.79877 8.5246C5.45511 8.4063 4.22375 8.14391 3.22836 7.75793C1.9541 7.26224 1.22304 6.62247 1.22304 5.9998V4.96413C2.47682 6.10621 5.22963 6.8808 8.49853 6.8808C11.7688 6.8808 14.5235 6.10421 15.7761 4.9621V5.99909C15.7767 6.62301 15.0445 7.26215 13.7703 7.75793ZM1.30584 3.19688C1.52725 2.69456 2.20074 2.2002 3.22979 1.80099C4.63228 1.25638 6.5041 0.956327 8.49995 0.956327C10.4967 0.956327 12.3676 1.25572 13.7701 1.80099C14.7985 2.2002 15.4739 2.69456 15.6954 3.19688C15.7496 3.31716 15.7767 3.43878 15.7767 3.55906C15.7767 3.67869 15.7496 3.79898 15.6961 3.91926C15.4747 4.42158 14.7992 4.91594 13.7708 5.31514C12.3683 5.85976 10.4965 6.15915 8.50061 6.15915C6.50391 6.15915 4.63293 5.85976 3.23045 5.31514C2.20205 4.91594 1.52849 4.42158 1.3065 3.91926C1.25164 3.79897 1.22455 3.67868 1.22455 3.5584C1.22455 3.43877 1.25164 3.3165 1.30584 3.19688Z" fill="#6B7280"/>
</svg>
