<svg  viewBox="0 0 200 171" fill="currentColor" xmlns="http://www.w3.org/2000/svg">
<path fill-rule="evenodd" clip-rule="evenodd" d="M99.9987 100.933C83.4665 100.933 70.0645 87.5311 70.0645 70.9989C70.0645 54.4667 83.4665 41.0647 99.9987 41.0647C116.531 41.0647 129.933 54.4667 129.933 70.9989C129.933 87.5311 116.531 100.933 99.9987 100.933ZM74.6697 70.9989C74.6697 84.9877 86.0099 96.3278 99.9987 96.3278C113.987 96.3278 125.328 84.9877 125.328 70.9989C125.328 57.0101 113.987 45.6699 99.9987 45.6699C86.0099 45.6699 74.6697 57.0101 74.6697 70.9989Z" fill="currentColor"/>
<path fill-rule="evenodd" clip-rule="evenodd" d="M111.606 63.2306C112.505 64.1298 112.505 65.5878 111.606 66.487L99.3251 78.7677C98.4259 79.6669 96.9679 79.6669 96.0687 78.7677L89.9283 72.6273C89.0291 71.7281 89.0291 70.2702 89.9283 69.3709C90.8276 68.4717 92.2855 68.4717 93.1847 69.3709L97.6969 73.8831L108.349 63.2306C109.249 62.3313 110.707 62.3313 111.606 63.2306Z" fill="currentColor"/>
<circle cx="165.131" cy="45.3404" r="7.23684" fill="currentColor"/>
<circle cx="42.1036" cy="95.9986" r="3.94737" fill="currentColor"/>
<circle cx="142.104" cy="121" r="2.63158" fill="currentColor"/>
<circle cx="134.21" cy="6.52513" r="2.63158" fill="currentColor"/>
<circle cx="61.8406" cy="20.9997" r="2.63158" fill="currentColor"/>
<circle cx="1.31579" cy="1.31579" r="1.31579" transform="matrix(1 0 0 -1 189.473 103.894)" fill="currentColor"/>
<circle cx="1.31579" cy="1.31579" r="1.31579" transform="matrix(1 0 0 -1 63.1562 134.157)" fill="currentColor"/>
<circle cx="1.31579" cy="1.31579" r="1.31579" transform="matrix(1 0 0 -1 11.8398 57.8418)" fill="currentColor"/>
</svg>
