<svg  viewBox="0 0 24 22" fill="currentColor" xmlns="http://www.w3.org/2000/svg">
<path d="M23.9969 5.03234C23.9285 2.26139 18.6821 0.101074 11.9999 0.101074C5.31772 0.101074 0.0714993 2.26131 0.00297424 5.03234C-2.8364e-09 5.05018 0 5.071 0 5.08786V8.75014C0 11.1691 3.93892 13.1332 9.3529 13.6207V15.9733C6.92895 16.3768 4.93735 17.3494 4.93735 18.8255C4.93735 20.8231 8.57679 21.8987 12 21.8987C15.4232 21.8987 19.0626 20.823 19.0626 18.8255C19.0626 17.3483 17.0699 16.3767 14.6471 15.9733V13.6207C20.0601 13.133 24 11.169 24 8.75014V5.08786C24 5.071 23.9999 5.05018 23.9969 5.03234ZM17.9791 18.8267C17.9791 19.6366 15.6493 20.8134 11.9999 20.8134C8.35051 20.8134 6.02074 19.6357 6.02074 18.8267C6.02074 18.2358 7.26196 17.4486 9.35283 17.0679V17.3366C9.35283 18.4916 10.2153 19.2094 11.6043 19.2094H12.3964C13.7844 19.2094 14.6479 18.4916 14.6479 17.3366V17.0679C16.7377 17.4486 17.9791 18.2348 17.9791 18.8267ZM13.5605 15.8316V17.3366C13.5605 17.859 13.1699 18.1237 12.3956 18.1237H11.6035C10.8292 18.1237 10.4387 17.86 10.4387 17.3366V13.6971C10.9492 13.7249 11.4687 13.7378 11.9991 13.7378C12.5295 13.7378 13.05 13.7249 13.5595 13.6971L13.5605 15.8316ZM19.9054 11.3871C18.4134 11.9661 16.5655 12.3587 14.5498 12.5371C14.3644 12.557 14.177 12.5699 13.9887 12.5828C13.7984 12.5976 13.605 12.6085 13.4097 12.6184C12.9458 12.6412 12.4729 12.6512 11.999 12.6512C11.5241 12.6512 11.0522 12.6412 10.5882 12.6184C10.3929 12.6085 10.1996 12.5986 10.0093 12.5828C9.8219 12.5699 9.63353 12.557 9.44816 12.5371C7.43266 12.3597 5.58563 11.9661 4.09255 11.3871C2.18116 10.6436 1.08455 9.68394 1.08455 8.74995V7.19643C2.96523 8.90956 7.09445 10.0714 11.9978 10.0714C16.9032 10.0714 21.0352 8.90657 22.9141 7.19339V8.74888C22.9151 9.68476 21.8167 10.6435 19.9054 11.3871ZM1.20876 4.54556C1.54088 3.79209 2.55112 3.05054 4.09468 2.45174C6.19842 1.63482 9.00615 1.18473 11.9999 1.18473C14.995 1.18473 17.8015 1.63383 19.9052 2.45174C21.4478 3.05054 22.4609 3.79209 22.7931 4.54556C22.8744 4.72599 22.9151 4.90841 22.9151 5.08883C22.9151 5.26827 22.8744 5.44872 22.7941 5.62914C22.462 6.38261 21.4488 7.12415 19.9062 7.72296C17.8024 8.53988 14.9947 8.98897 12.0009 8.98897C9.00587 8.98897 6.19939 8.53988 4.09567 7.72296C2.55307 7.12415 1.54273 6.38261 1.20975 5.62914C1.12747 5.44871 1.08682 5.26827 1.08682 5.08784C1.08682 4.9084 1.12747 4.72499 1.20876 4.54556Z" fill="#333333"/>
</svg>
