<svg  viewBox="0 0 21 20" fill="none" xmlns="http://www.w3.org/2000/svg">
<path d="M10.4997 18.9583C6.13301 18.9583 2.58301 15.4083 2.58301 11.0417C2.58301 6.675 6.13301 3.125 10.4997 3.125C14.8663 3.125 18.4163 6.675 18.4163 11.0417C18.4163 15.4083 14.8663 18.9583 10.4997 18.9583ZM10.4997 4.375C6.82467 4.375 3.83301 7.36667 3.83301 11.0417C3.83301 14.7167 6.82467 17.7083 10.4997 17.7083C14.1747 17.7083 17.1663 14.7167 17.1663 11.0417C17.1663 7.36667 14.1747 4.375 10.4997 4.375Z" fill="white"/>
<path d="M10.5 11.4582C10.1583 11.4582 9.875 11.1748 9.875 10.8332V6.6665C9.875 6.32484 10.1583 6.0415 10.5 6.0415C10.8417 6.0415 11.125 6.32484 11.125 6.6665V10.8332C11.125 11.1748 10.8417 11.4582 10.5 11.4582Z" fill="white"/>
<path d="M13 2.2915H8C7.65833 2.2915 7.375 2.00817 7.375 1.6665C7.375 1.32484 7.65833 1.0415 8 1.0415H13C13.3417 1.0415 13.625 1.32484 13.625 1.6665C13.625 2.00817 13.3417 2.2915 13 2.2915Z" fill="white"/>
</svg>
